<svg width="256" height="256" viewBox="0 0 256 256" fill="none" xmlns="http://www.w3.org/2000/svg">
  <rect x="16" y="16" width="224" height="224" rx="56" fill="#09090B"/>
  <rect x="30" y="30" width="196" height="196" rx="44" fill="url(#g)" fill-opacity="0.18"/>
  <path d="M166.912 90.24C162.688 76.928 149.952 68.8 133.056 68.8C113.6 68.8 97.28 78.784 97.28 95.232C97.28 108.8 106.176 116.288 122.944 120.896L136.384 124.48C145.536 126.912 149.248 129.728 149.248 134.592C149.248 140.352 142.848 144.32 132.608 144.32C121.856 144.32 114.88 139.84 112.448 131.072L90.752 131.072C93.44 147.52 108.288 160 132.608 160C156.544 160 171.968 148.864 171.968 131.456C171.968 117.504 162.816 109.248 145.792 104.896L133.952 101.824C124.416 99.392 120.256 96.448 120.256 91.328C120.256 85.824 126.272 81.984 134.912 81.984C144.192 81.984 150.208 86.08 152.512 92.992L166.912 90.24Z" fill="white"/>
  <defs>
    <linearGradient id="g" x1="32" y1="44" x2="224" y2="224" gradientUnits="userSpaceOnUse">
      <stop stop-color="#F59E0B"/>
      <stop offset="1" stop-color="#A855F7"/>
    </linearGradient>
  </defs>
</svg>
